<svg width="851" height="455" viewBox="0 0 851 455" fill="none" xmlns="http://www.w3.org/2000/svg">
<path d="M356.73 262.12H527.35H609.14C662.16 262.12 711.76 235.51 741.32 192.09H527.34H356.73H194.07C223.63 235.58 273.23 262.12 326.25 262.12H356.73Z" fill="white"/>
<path d="M238.47 166.07H372.78H490.88C543.9 166.07 593.5 139.46 623.06 96.04H372.78H238.47H97.04C126.6 139.46 176.2 166.07 229.22 166.07H238.47Z" fill="white"/>
<path d="M467.3 358.17H481.17H490.87C543.89 358.17 593.49 331.56 623.05 288.14H481.17H467.3H291.1C320.6 331.63 370.26 358.17 423.21 358.17H467.3Z" fill="white"/>
<path d="M626.52 0.0800171V0H0C29.54 43.46 79.17 70.01 132.16 70.01H623.29C710.05 70.01 780.38 140.34 780.38 227.1C780.38 313.86 710.05 384.19 623.29 384.19H388.11C417.65 427.64 467.28 454.2 520.27 454.2H623.3C623.34 454.2 623.38 454.2 623.43 454.2H626.53V454.12C750.46 452.39 850.4 351.44 850.4 227.1C850.4 102.76 750.45 1.81002 626.52 0.0800171Z" fill="white"/>
</svg>
